# xmcd CD database file
#
# Track frame offsets:
#	150
#	27400
#	48360
#
# Disc length: 1005 seconds
#
# Revision: 3
# Processed by: cddbd v1.5.2PL0 Copyright (c) Steve Scherf et al.
# Submitted via: CDex 1.70beta3
#
DISCID=1e03eb03
DTITLE=PERSONZ - VENUSの憂鬱
DYEAR=1996
DGENRE=Rock
TTITLE0=VENUSの憂鬱
TTITLE1=水に映った月(Live acoustic version 〜 June 3.'94)
TTITLE2=VENUSの憂鬱（オリジナル・カラオケ）
EXTD=YEAR: 1996
EXTT0=
EXTT1=
EXTT2=
PLAYORDER=
